<mxfile host="app.diagrams.net" modified="2021-05-26T11:39:27.814Z" agent="5.0 (Macintosh; Intel Mac OS X 10_14_6) AppleWebKit/605.1.15 (KHTML, like Gecko) Version/14.0.3 Safari/605.1.15" etag="egXuIm3vy60XG0x_keQO" version="14.6.12" type="github">
  <diagram id="fKOuoRNuhxXaLsH1ETYs" name="Page-1">
    <mxGraphModel dx="865" dy="715" grid="1" gridSize="10" guides="1" tooltips="1" connect="1" arrows="1" fold="1" page="1" pageScale="1" pageWidth="850" pageHeight="1100" math="0" shadow="0">
      <root>
        <mxCell id="0" />
        <mxCell id="1" parent="0" />
        <mxCell id="VEnAIz456IoGPyVfWT1b-36" value="" style="rounded=1;whiteSpace=wrap;html=1;" parent="1" vertex="1">
          <mxGeometry x="150" y="209" width="470" height="180" as="geometry" />
        </mxCell>
        <mxCell id="VEnAIz456IoGPyVfWT1b-27" value="" style="rounded=1;whiteSpace=wrap;html=1;fillColor=#f5f5f5;strokeColor=#666666;fontColor=#333333;" parent="1" vertex="1">
          <mxGeometry x="250" y="160" width="260" height="370" as="geometry" />
        </mxCell>
        <mxCell id="VEnAIz456IoGPyVfWT1b-6" style="edgeStyle=orthogonalEdgeStyle;rounded=0;orthogonalLoop=1;jettySize=auto;html=1;exitX=0.5;exitY=0;exitDx=0;exitDy=0;entryX=0.5;entryY=1;entryDx=0;entryDy=0;" parent="1" source="VEnAIz456IoGPyVfWT1b-1" target="VEnAIz456IoGPyVfWT1b-3" edge="1">
          <mxGeometry relative="1" as="geometry" />
        </mxCell>
        <mxCell id="VEnAIz456IoGPyVfWT1b-1" value="" style="rounded=0;whiteSpace=wrap;html=1;rotation=90;" parent="1" vertex="1">
          <mxGeometry x="320" y="280" width="120" height="40" as="geometry" />
        </mxCell>
        <mxCell id="VEnAIz456IoGPyVfWT1b-5" style="edgeStyle=orthogonalEdgeStyle;rounded=0;orthogonalLoop=1;jettySize=auto;html=1;exitX=0.5;exitY=0;exitDx=0;exitDy=0;entryX=0.5;entryY=1;entryDx=0;entryDy=0;" parent="1" source="VEnAIz456IoGPyVfWT1b-2" target="VEnAIz456IoGPyVfWT1b-1" edge="1">
          <mxGeometry relative="1" as="geometry" />
        </mxCell>
        <mxCell id="VEnAIz456IoGPyVfWT1b-2" value="" style="rounded=0;whiteSpace=wrap;html=1;rotation=90;" parent="1" vertex="1">
          <mxGeometry x="240" y="280" width="120" height="40" as="geometry" />
        </mxCell>
        <mxCell id="VEnAIz456IoGPyVfWT1b-39" style="edgeStyle=orthogonalEdgeStyle;rounded=0;orthogonalLoop=1;jettySize=auto;html=1;exitX=0.5;exitY=0;exitDx=0;exitDy=0;entryX=0.5;entryY=1;entryDx=0;entryDy=0;" parent="1" source="VEnAIz456IoGPyVfWT1b-3" target="VEnAIz456IoGPyVfWT1b-33" edge="1">
          <mxGeometry relative="1" as="geometry" />
        </mxCell>
        <mxCell id="VEnAIz456IoGPyVfWT1b-3" value="" style="rounded=0;whiteSpace=wrap;html=1;rotation=90;" parent="1" vertex="1">
          <mxGeometry x="400" y="280" width="120" height="40" as="geometry" />
        </mxCell>
        <mxCell id="VEnAIz456IoGPyVfWT1b-4" value="" style="rounded=0;whiteSpace=wrap;html=1;rotation=90;" parent="1" vertex="1">
          <mxGeometry x="320" y="415" width="120" height="40" as="geometry" />
        </mxCell>
        <mxCell id="VEnAIz456IoGPyVfWT1b-7" value="" style="ellipse;whiteSpace=wrap;html=1;aspect=fixed;" parent="1" vertex="1">
          <mxGeometry x="287" y="243" width="27" height="27" as="geometry" />
        </mxCell>
        <mxCell id="VEnAIz456IoGPyVfWT1b-9" value="" style="ellipse;whiteSpace=wrap;html=1;aspect=fixed;" parent="1" vertex="1">
          <mxGeometry x="287" y="276" width="27" height="27" as="geometry" />
        </mxCell>
        <mxCell id="VEnAIz456IoGPyVfWT1b-10" value="" style="ellipse;whiteSpace=wrap;html=1;aspect=fixed;" parent="1" vertex="1">
          <mxGeometry x="286.5" y="330" width="27" height="27" as="geometry" />
        </mxCell>
        <mxCell id="VEnAIz456IoGPyVfWT1b-21" style="edgeStyle=orthogonalEdgeStyle;rounded=0;orthogonalLoop=1;jettySize=auto;html=1;exitX=1;exitY=0.5;exitDx=0;exitDy=0;entryX=1;entryY=0.5;entryDx=0;entryDy=0;dashed=1;dashPattern=1 1;" parent="1" source="VEnAIz456IoGPyVfWT1b-11" target="VEnAIz456IoGPyVfWT1b-15" edge="1">
          <mxGeometry relative="1" as="geometry" />
        </mxCell>
        <mxCell id="VEnAIz456IoGPyVfWT1b-11" value="" style="ellipse;whiteSpace=wrap;html=1;aspect=fixed;" parent="1" vertex="1">
          <mxGeometry x="366.5" y="243" width="27" height="27" as="geometry" />
        </mxCell>
        <mxCell id="VEnAIz456IoGPyVfWT1b-22" style="edgeStyle=orthogonalEdgeStyle;rounded=0;orthogonalLoop=1;jettySize=auto;html=1;exitX=1;exitY=0.5;exitDx=0;exitDy=0;entryX=1;entryY=0.5;entryDx=0;entryDy=0;dashed=1;dashPattern=1 1;" parent="1" source="VEnAIz456IoGPyVfWT1b-12" target="VEnAIz456IoGPyVfWT1b-16" edge="1">
          <mxGeometry relative="1" as="geometry">
            <Array as="points">
              <mxPoint x="420" y="290" />
              <mxPoint x="420" y="425" />
            </Array>
          </mxGeometry>
        </mxCell>
        <mxCell id="VEnAIz456IoGPyVfWT1b-12" value="" style="ellipse;whiteSpace=wrap;html=1;aspect=fixed;" parent="1" vertex="1">
          <mxGeometry x="366.5" y="276" width="27" height="27" as="geometry" />
        </mxCell>
        <mxCell id="VEnAIz456IoGPyVfWT1b-23" style="edgeStyle=orthogonalEdgeStyle;rounded=0;orthogonalLoop=1;jettySize=auto;html=1;exitX=1;exitY=0.5;exitDx=0;exitDy=0;entryX=1;entryY=0.5;entryDx=0;entryDy=0;dashed=1;dashPattern=1 1;" parent="1" source="VEnAIz456IoGPyVfWT1b-13" target="VEnAIz456IoGPyVfWT1b-17" edge="1">
          <mxGeometry relative="1" as="geometry">
            <Array as="points">
              <mxPoint x="430" y="344" />
              <mxPoint x="430" y="479" />
            </Array>
          </mxGeometry>
        </mxCell>
        <mxCell id="VEnAIz456IoGPyVfWT1b-13" value="" style="ellipse;whiteSpace=wrap;html=1;aspect=fixed;" parent="1" vertex="1">
          <mxGeometry x="366.5" y="330" width="27" height="27" as="geometry" />
        </mxCell>
        <mxCell id="VEnAIz456IoGPyVfWT1b-26" style="edgeStyle=orthogonalEdgeStyle;rounded=0;orthogonalLoop=1;jettySize=auto;html=1;exitX=0;exitY=0.5;exitDx=0;exitDy=0;entryX=0;entryY=0.5;entryDx=0;entryDy=0;dashed=1;dashPattern=1 1;" parent="1" source="VEnAIz456IoGPyVfWT1b-15" target="VEnAIz456IoGPyVfWT1b-11" edge="1">
          <mxGeometry relative="1" as="geometry" />
        </mxCell>
        <mxCell id="VEnAIz456IoGPyVfWT1b-15" value="" style="ellipse;whiteSpace=wrap;html=1;aspect=fixed;" parent="1" vertex="1">
          <mxGeometry x="366.5" y="378" width="27" height="27" as="geometry" />
        </mxCell>
        <mxCell id="VEnAIz456IoGPyVfWT1b-25" style="edgeStyle=orthogonalEdgeStyle;rounded=0;orthogonalLoop=1;jettySize=auto;html=1;exitX=0;exitY=0.5;exitDx=0;exitDy=0;entryX=0;entryY=0.5;entryDx=0;entryDy=0;dashed=1;dashPattern=1 1;" parent="1" source="VEnAIz456IoGPyVfWT1b-16" target="VEnAIz456IoGPyVfWT1b-12" edge="1">
          <mxGeometry relative="1" as="geometry">
            <Array as="points">
              <mxPoint x="340" y="425" />
              <mxPoint x="340" y="290" />
            </Array>
          </mxGeometry>
        </mxCell>
        <mxCell id="VEnAIz456IoGPyVfWT1b-16" value="" style="ellipse;whiteSpace=wrap;html=1;aspect=fixed;" parent="1" vertex="1">
          <mxGeometry x="366.5" y="411" width="27" height="27" as="geometry" />
        </mxCell>
        <mxCell id="VEnAIz456IoGPyVfWT1b-24" style="edgeStyle=orthogonalEdgeStyle;rounded=0;orthogonalLoop=1;jettySize=auto;html=1;exitX=0;exitY=0.5;exitDx=0;exitDy=0;entryX=0;entryY=0.5;entryDx=0;entryDy=0;dashed=1;dashPattern=1 1;" parent="1" source="VEnAIz456IoGPyVfWT1b-17" target="VEnAIz456IoGPyVfWT1b-13" edge="1">
          <mxGeometry relative="1" as="geometry">
            <Array as="points">
              <mxPoint x="330" y="479" />
              <mxPoint x="330" y="344" />
            </Array>
          </mxGeometry>
        </mxCell>
        <mxCell id="VEnAIz456IoGPyVfWT1b-17" value="" style="ellipse;whiteSpace=wrap;html=1;aspect=fixed;" parent="1" vertex="1">
          <mxGeometry x="366.5" y="465" width="27" height="27" as="geometry" />
        </mxCell>
        <mxCell id="VEnAIz456IoGPyVfWT1b-18" value="" style="ellipse;whiteSpace=wrap;html=1;aspect=fixed;" parent="1" vertex="1">
          <mxGeometry x="446.5" y="243" width="27" height="27" as="geometry" />
        </mxCell>
        <mxCell id="VEnAIz456IoGPyVfWT1b-19" value="" style="ellipse;whiteSpace=wrap;html=1;aspect=fixed;" parent="1" vertex="1">
          <mxGeometry x="446.5" y="276" width="27" height="27" as="geometry" />
        </mxCell>
        <mxCell id="VEnAIz456IoGPyVfWT1b-20" value="" style="ellipse;whiteSpace=wrap;html=1;aspect=fixed;" parent="1" vertex="1">
          <mxGeometry x="446.5" y="330" width="27" height="27" as="geometry" />
        </mxCell>
        <mxCell id="VEnAIz456IoGPyVfWT1b-28" value="Context&lt;br&gt;Units" style="text;html=1;strokeColor=none;fillColor=none;align=center;verticalAlign=middle;whiteSpace=wrap;rounded=0;" parent="1" vertex="1">
          <mxGeometry x="360" y="500" width="40" height="20" as="geometry" />
        </mxCell>
        <mxCell id="VEnAIz456IoGPyVfWT1b-29" value="Hidden&lt;br&gt;Layer" style="text;html=1;strokeColor=none;fillColor=none;align=center;verticalAlign=middle;whiteSpace=wrap;rounded=0;" parent="1" vertex="1">
          <mxGeometry x="360" y="215" width="40" height="20" as="geometry" />
        </mxCell>
        <mxCell id="VEnAIz456IoGPyVfWT1b-30" value="Input&lt;br&gt;Layer" style="text;html=1;strokeColor=none;fillColor=none;align=center;verticalAlign=middle;whiteSpace=wrap;rounded=0;" parent="1" vertex="1">
          <mxGeometry x="280" y="215" width="40" height="20" as="geometry" />
        </mxCell>
        <mxCell id="VEnAIz456IoGPyVfWT1b-31" value="Output&lt;br&gt;Layer" style="text;html=1;strokeColor=none;fillColor=none;align=center;verticalAlign=middle;whiteSpace=wrap;rounded=0;" parent="1" vertex="1">
          <mxGeometry x="440" y="215" width="40" height="20" as="geometry" />
        </mxCell>
        <mxCell id="VEnAIz456IoGPyVfWT1b-32" value="Elman RNN (Activation: Tanh)" style="text;html=1;strokeColor=none;fillColor=none;align=center;verticalAlign=middle;whiteSpace=wrap;rounded=0;" parent="1" vertex="1">
          <mxGeometry x="320" y="170" width="120" height="20" as="geometry" />
        </mxCell>
        <mxCell id="VEnAIz456IoGPyVfWT1b-79" style="edgeStyle=orthogonalEdgeStyle;rounded=0;orthogonalLoop=1;jettySize=auto;html=1;exitX=0.5;exitY=0;exitDx=0;exitDy=0;entryX=0.5;entryY=1;entryDx=0;entryDy=0;" parent="1" source="VEnAIz456IoGPyVfWT1b-33" target="VEnAIz456IoGPyVfWT1b-77" edge="1">
          <mxGeometry relative="1" as="geometry" />
        </mxCell>
        <mxCell id="A_X_l40McOnE2sB7VnQm-6" style="edgeStyle=orthogonalEdgeStyle;rounded=0;orthogonalLoop=1;jettySize=auto;html=1;exitX=0.5;exitY=0;exitDx=0;exitDy=0;entryX=0;entryY=0.5;entryDx=0;entryDy=0;" edge="1" parent="1" source="VEnAIz456IoGPyVfWT1b-33" target="A_X_l40McOnE2sB7VnQm-2">
          <mxGeometry relative="1" as="geometry">
            <mxPoint x="720" y="300.2941176470589" as="targetPoint" />
          </mxGeometry>
        </mxCell>
        <mxCell id="VEnAIz456IoGPyVfWT1b-33" value="" style="rounded=0;whiteSpace=wrap;html=1;rotation=90;fillColor=#dae8fc;strokeColor=#6c8ebf;" parent="1" vertex="1">
          <mxGeometry x="520" y="281" width="120" height="38" as="geometry" />
        </mxCell>
        <mxCell id="VEnAIz456IoGPyVfWT1b-96" style="edgeStyle=orthogonalEdgeStyle;rounded=0;orthogonalLoop=1;jettySize=auto;html=1;exitX=1;exitY=0.5;exitDx=0;exitDy=0;entryX=0.5;entryY=1;entryDx=0;entryDy=0;" parent="1" source="VEnAIz456IoGPyVfWT1b-34" target="VEnAIz456IoGPyVfWT1b-2" edge="1">
          <mxGeometry relative="1" as="geometry" />
        </mxCell>
        <mxCell id="VEnAIz456IoGPyVfWT1b-97" value="flatten" style="edgeLabel;html=1;align=center;verticalAlign=middle;resizable=0;points=[];" parent="VEnAIz456IoGPyVfWT1b-96" vertex="1" connectable="0">
          <mxGeometry x="-0.343" y="-3" relative="1" as="geometry">
            <mxPoint y="-10" as="offset" />
          </mxGeometry>
        </mxCell>
        <mxCell id="VEnAIz456IoGPyVfWT1b-34" value="14x14" style="whiteSpace=wrap;html=1;aspect=fixed;" parent="1" vertex="1">
          <mxGeometry x="160" y="279" width="41" height="41" as="geometry" />
        </mxCell>
        <mxCell id="VEnAIz456IoGPyVfWT1b-40" value="" style="rounded=1;whiteSpace=wrap;html=1;" parent="1" vertex="1">
          <mxGeometry x="150" y="599" width="470" height="180" as="geometry" />
        </mxCell>
        <mxCell id="VEnAIz456IoGPyVfWT1b-41" value="" style="rounded=1;whiteSpace=wrap;html=1;fillColor=#f5f5f5;strokeColor=#666666;fontColor=#333333;" parent="1" vertex="1">
          <mxGeometry x="250" y="550" width="260" height="370" as="geometry" />
        </mxCell>
        <mxCell id="VEnAIz456IoGPyVfWT1b-42" style="edgeStyle=orthogonalEdgeStyle;rounded=0;orthogonalLoop=1;jettySize=auto;html=1;exitX=0.5;exitY=0;exitDx=0;exitDy=0;entryX=0.5;entryY=1;entryDx=0;entryDy=0;" parent="1" source="VEnAIz456IoGPyVfWT1b-43" target="VEnAIz456IoGPyVfWT1b-47" edge="1">
          <mxGeometry relative="1" as="geometry" />
        </mxCell>
        <mxCell id="VEnAIz456IoGPyVfWT1b-43" value="" style="rounded=0;whiteSpace=wrap;html=1;rotation=90;" parent="1" vertex="1">
          <mxGeometry x="320" y="670" width="120" height="40" as="geometry" />
        </mxCell>
        <mxCell id="VEnAIz456IoGPyVfWT1b-44" style="edgeStyle=orthogonalEdgeStyle;rounded=0;orthogonalLoop=1;jettySize=auto;html=1;exitX=0.5;exitY=0;exitDx=0;exitDy=0;entryX=0.5;entryY=1;entryDx=0;entryDy=0;" parent="1" source="VEnAIz456IoGPyVfWT1b-45" target="VEnAIz456IoGPyVfWT1b-43" edge="1">
          <mxGeometry relative="1" as="geometry" />
        </mxCell>
        <mxCell id="VEnAIz456IoGPyVfWT1b-45" value="" style="rounded=0;whiteSpace=wrap;html=1;rotation=90;" parent="1" vertex="1">
          <mxGeometry x="240" y="670" width="120" height="40" as="geometry" />
        </mxCell>
        <mxCell id="VEnAIz456IoGPyVfWT1b-46" style="edgeStyle=orthogonalEdgeStyle;rounded=0;orthogonalLoop=1;jettySize=auto;html=1;exitX=0.5;exitY=0;exitDx=0;exitDy=0;entryX=0.5;entryY=1;entryDx=0;entryDy=0;" parent="1" source="VEnAIz456IoGPyVfWT1b-47" target="VEnAIz456IoGPyVfWT1b-72" edge="1">
          <mxGeometry relative="1" as="geometry" />
        </mxCell>
        <mxCell id="VEnAIz456IoGPyVfWT1b-47" value="" style="rounded=0;whiteSpace=wrap;html=1;rotation=90;" parent="1" vertex="1">
          <mxGeometry x="400" y="670" width="120" height="40" as="geometry" />
        </mxCell>
        <mxCell id="VEnAIz456IoGPyVfWT1b-48" value="" style="rounded=0;whiteSpace=wrap;html=1;rotation=90;" parent="1" vertex="1">
          <mxGeometry x="320" y="805" width="120" height="40" as="geometry" />
        </mxCell>
        <mxCell id="VEnAIz456IoGPyVfWT1b-49" value="" style="ellipse;whiteSpace=wrap;html=1;aspect=fixed;" parent="1" vertex="1">
          <mxGeometry x="287" y="633" width="27" height="27" as="geometry" />
        </mxCell>
        <mxCell id="VEnAIz456IoGPyVfWT1b-50" value="" style="ellipse;whiteSpace=wrap;html=1;aspect=fixed;" parent="1" vertex="1">
          <mxGeometry x="287" y="666" width="27" height="27" as="geometry" />
        </mxCell>
        <mxCell id="VEnAIz456IoGPyVfWT1b-51" value="" style="ellipse;whiteSpace=wrap;html=1;aspect=fixed;" parent="1" vertex="1">
          <mxGeometry x="286.5" y="720" width="27" height="27" as="geometry" />
        </mxCell>
        <mxCell id="VEnAIz456IoGPyVfWT1b-52" style="edgeStyle=orthogonalEdgeStyle;rounded=0;orthogonalLoop=1;jettySize=auto;html=1;exitX=1;exitY=0.5;exitDx=0;exitDy=0;entryX=1;entryY=0.5;entryDx=0;entryDy=0;dashed=1;dashPattern=1 1;" parent="1" source="VEnAIz456IoGPyVfWT1b-53" target="VEnAIz456IoGPyVfWT1b-59" edge="1">
          <mxGeometry relative="1" as="geometry" />
        </mxCell>
        <mxCell id="VEnAIz456IoGPyVfWT1b-53" value="" style="ellipse;whiteSpace=wrap;html=1;aspect=fixed;" parent="1" vertex="1">
          <mxGeometry x="366.5" y="633" width="27" height="27" as="geometry" />
        </mxCell>
        <mxCell id="VEnAIz456IoGPyVfWT1b-54" style="edgeStyle=orthogonalEdgeStyle;rounded=0;orthogonalLoop=1;jettySize=auto;html=1;exitX=1;exitY=0.5;exitDx=0;exitDy=0;entryX=1;entryY=0.5;entryDx=0;entryDy=0;dashed=1;dashPattern=1 1;" parent="1" source="VEnAIz456IoGPyVfWT1b-55" target="VEnAIz456IoGPyVfWT1b-61" edge="1">
          <mxGeometry relative="1" as="geometry">
            <Array as="points">
              <mxPoint x="420" y="680" />
              <mxPoint x="420" y="815" />
            </Array>
          </mxGeometry>
        </mxCell>
        <mxCell id="VEnAIz456IoGPyVfWT1b-55" value="" style="ellipse;whiteSpace=wrap;html=1;aspect=fixed;" parent="1" vertex="1">
          <mxGeometry x="366.5" y="666" width="27" height="27" as="geometry" />
        </mxCell>
        <mxCell id="VEnAIz456IoGPyVfWT1b-56" style="edgeStyle=orthogonalEdgeStyle;rounded=0;orthogonalLoop=1;jettySize=auto;html=1;exitX=1;exitY=0.5;exitDx=0;exitDy=0;entryX=1;entryY=0.5;entryDx=0;entryDy=0;dashed=1;dashPattern=1 1;" parent="1" source="VEnAIz456IoGPyVfWT1b-57" target="VEnAIz456IoGPyVfWT1b-63" edge="1">
          <mxGeometry relative="1" as="geometry">
            <Array as="points">
              <mxPoint x="430" y="734" />
              <mxPoint x="430" y="869" />
            </Array>
          </mxGeometry>
        </mxCell>
        <mxCell id="VEnAIz456IoGPyVfWT1b-57" value="" style="ellipse;whiteSpace=wrap;html=1;aspect=fixed;" parent="1" vertex="1">
          <mxGeometry x="366.5" y="720" width="27" height="27" as="geometry" />
        </mxCell>
        <mxCell id="VEnAIz456IoGPyVfWT1b-58" style="edgeStyle=orthogonalEdgeStyle;rounded=0;orthogonalLoop=1;jettySize=auto;html=1;exitX=0;exitY=0.5;exitDx=0;exitDy=0;entryX=0;entryY=0.5;entryDx=0;entryDy=0;dashed=1;dashPattern=1 1;" parent="1" source="VEnAIz456IoGPyVfWT1b-59" target="VEnAIz456IoGPyVfWT1b-53" edge="1">
          <mxGeometry relative="1" as="geometry" />
        </mxCell>
        <mxCell id="VEnAIz456IoGPyVfWT1b-59" value="" style="ellipse;whiteSpace=wrap;html=1;aspect=fixed;" parent="1" vertex="1">
          <mxGeometry x="366.5" y="768" width="27" height="27" as="geometry" />
        </mxCell>
        <mxCell id="VEnAIz456IoGPyVfWT1b-60" style="edgeStyle=orthogonalEdgeStyle;rounded=0;orthogonalLoop=1;jettySize=auto;html=1;exitX=0;exitY=0.5;exitDx=0;exitDy=0;entryX=0;entryY=0.5;entryDx=0;entryDy=0;dashed=1;dashPattern=1 1;" parent="1" source="VEnAIz456IoGPyVfWT1b-61" target="VEnAIz456IoGPyVfWT1b-55" edge="1">
          <mxGeometry relative="1" as="geometry">
            <Array as="points">
              <mxPoint x="340" y="815" />
              <mxPoint x="340" y="680" />
            </Array>
          </mxGeometry>
        </mxCell>
        <mxCell id="VEnAIz456IoGPyVfWT1b-61" value="" style="ellipse;whiteSpace=wrap;html=1;aspect=fixed;" parent="1" vertex="1">
          <mxGeometry x="366.5" y="801" width="27" height="27" as="geometry" />
        </mxCell>
        <mxCell id="VEnAIz456IoGPyVfWT1b-62" style="edgeStyle=orthogonalEdgeStyle;rounded=0;orthogonalLoop=1;jettySize=auto;html=1;exitX=0;exitY=0.5;exitDx=0;exitDy=0;entryX=0;entryY=0.5;entryDx=0;entryDy=0;dashed=1;dashPattern=1 1;" parent="1" source="VEnAIz456IoGPyVfWT1b-63" target="VEnAIz456IoGPyVfWT1b-57" edge="1">
          <mxGeometry relative="1" as="geometry">
            <Array as="points">
              <mxPoint x="330" y="869" />
              <mxPoint x="330" y="734" />
            </Array>
          </mxGeometry>
        </mxCell>
        <mxCell id="VEnAIz456IoGPyVfWT1b-63" value="" style="ellipse;whiteSpace=wrap;html=1;aspect=fixed;" parent="1" vertex="1">
          <mxGeometry x="366.5" y="855" width="27" height="27" as="geometry" />
        </mxCell>
        <mxCell id="VEnAIz456IoGPyVfWT1b-64" value="" style="ellipse;whiteSpace=wrap;html=1;aspect=fixed;" parent="1" vertex="1">
          <mxGeometry x="446.5" y="633" width="27" height="27" as="geometry" />
        </mxCell>
        <mxCell id="VEnAIz456IoGPyVfWT1b-65" value="" style="ellipse;whiteSpace=wrap;html=1;aspect=fixed;" parent="1" vertex="1">
          <mxGeometry x="446.5" y="666" width="27" height="27" as="geometry" />
        </mxCell>
        <mxCell id="VEnAIz456IoGPyVfWT1b-66" value="" style="ellipse;whiteSpace=wrap;html=1;aspect=fixed;" parent="1" vertex="1">
          <mxGeometry x="446.5" y="720" width="27" height="27" as="geometry" />
        </mxCell>
        <mxCell id="VEnAIz456IoGPyVfWT1b-67" value="Context&lt;br&gt;Units" style="text;html=1;strokeColor=none;fillColor=none;align=center;verticalAlign=middle;whiteSpace=wrap;rounded=0;" parent="1" vertex="1">
          <mxGeometry x="360" y="890" width="40" height="20" as="geometry" />
        </mxCell>
        <mxCell id="VEnAIz456IoGPyVfWT1b-68" value="Hidden&lt;br&gt;Layer" style="text;html=1;strokeColor=none;fillColor=none;align=center;verticalAlign=middle;whiteSpace=wrap;rounded=0;" parent="1" vertex="1">
          <mxGeometry x="360" y="605" width="40" height="20" as="geometry" />
        </mxCell>
        <mxCell id="VEnAIz456IoGPyVfWT1b-69" value="Input&lt;br&gt;Layer" style="text;html=1;strokeColor=none;fillColor=none;align=center;verticalAlign=middle;whiteSpace=wrap;rounded=0;" parent="1" vertex="1">
          <mxGeometry x="280" y="605" width="40" height="20" as="geometry" />
        </mxCell>
        <mxCell id="VEnAIz456IoGPyVfWT1b-70" value="Output&lt;br&gt;Layer" style="text;html=1;strokeColor=none;fillColor=none;align=center;verticalAlign=middle;whiteSpace=wrap;rounded=0;" parent="1" vertex="1">
          <mxGeometry x="440" y="605" width="40" height="20" as="geometry" />
        </mxCell>
        <mxCell id="VEnAIz456IoGPyVfWT1b-71" value="Elman RNN (Activation: Tanh)" style="text;html=1;strokeColor=none;fillColor=none;align=center;verticalAlign=middle;whiteSpace=wrap;rounded=0;" parent="1" vertex="1">
          <mxGeometry x="320" y="560" width="120" height="20" as="geometry" />
        </mxCell>
        <mxCell id="VEnAIz456IoGPyVfWT1b-78" style="edgeStyle=orthogonalEdgeStyle;rounded=0;orthogonalLoop=1;jettySize=auto;html=1;exitX=0.5;exitY=0;exitDx=0;exitDy=0;entryX=0.5;entryY=1;entryDx=0;entryDy=0;" parent="1" source="VEnAIz456IoGPyVfWT1b-72" target="VEnAIz456IoGPyVfWT1b-77" edge="1">
          <mxGeometry relative="1" as="geometry" />
        </mxCell>
        <mxCell id="A_X_l40McOnE2sB7VnQm-4" style="edgeStyle=orthogonalEdgeStyle;rounded=0;orthogonalLoop=1;jettySize=auto;html=1;exitX=0.5;exitY=0;exitDx=0;exitDy=0;entryX=0;entryY=0.5;entryDx=0;entryDy=0;" edge="1" parent="1" source="VEnAIz456IoGPyVfWT1b-72" target="A_X_l40McOnE2sB7VnQm-1">
          <mxGeometry relative="1" as="geometry" />
        </mxCell>
        <mxCell id="VEnAIz456IoGPyVfWT1b-72" value="" style="rounded=0;whiteSpace=wrap;html=1;rotation=90;fillColor=#dae8fc;strokeColor=#6c8ebf;" parent="1" vertex="1">
          <mxGeometry x="520" y="671" width="120" height="38" as="geometry" />
        </mxCell>
        <mxCell id="VEnAIz456IoGPyVfWT1b-98" style="edgeStyle=orthogonalEdgeStyle;rounded=0;orthogonalLoop=1;jettySize=auto;html=1;exitX=1;exitY=0.5;exitDx=0;exitDy=0;entryX=0.5;entryY=1;entryDx=0;entryDy=0;" parent="1" source="VEnAIz456IoGPyVfWT1b-74" target="VEnAIz456IoGPyVfWT1b-45" edge="1">
          <mxGeometry relative="1" as="geometry" />
        </mxCell>
        <mxCell id="VEnAIz456IoGPyVfWT1b-99" value="flatten" style="edgeLabel;html=1;align=center;verticalAlign=middle;resizable=0;points=[];" parent="VEnAIz456IoGPyVfWT1b-98" vertex="1" connectable="0">
          <mxGeometry x="-0.3788" relative="1" as="geometry">
            <mxPoint y="-7" as="offset" />
          </mxGeometry>
        </mxCell>
        <mxCell id="VEnAIz456IoGPyVfWT1b-74" value="14x14" style="whiteSpace=wrap;html=1;aspect=fixed;" parent="1" vertex="1">
          <mxGeometry x="160" y="669" width="41" height="41" as="geometry" />
        </mxCell>
        <mxCell id="VEnAIz456IoGPyVfWT1b-82" style="edgeStyle=orthogonalEdgeStyle;rounded=0;orthogonalLoop=1;jettySize=auto;html=1;exitX=0.5;exitY=0;exitDx=0;exitDy=0;" parent="1" source="VEnAIz456IoGPyVfWT1b-77" target="VEnAIz456IoGPyVfWT1b-80" edge="1">
          <mxGeometry relative="1" as="geometry" />
        </mxCell>
        <mxCell id="VEnAIz456IoGPyVfWT1b-77" value="&lt;br&gt;&lt;br&gt;&lt;br&gt;4&lt;br&gt;" style="rounded=0;whiteSpace=wrap;html=1;rotation=90;fillColor=#dae8fc;strokeColor=#6c8ebf;" parent="1" vertex="1">
          <mxGeometry x="640" y="470" width="120" height="38.5" as="geometry" />
        </mxCell>
        <mxCell id="VEnAIz456IoGPyVfWT1b-80" value="Out: 2x1" style="rounded=0;whiteSpace=wrap;html=1;" parent="1" vertex="1">
          <mxGeometry x="790" y="467.25" width="70" height="44" as="geometry" />
        </mxCell>
        <mxCell id="VEnAIz456IoGPyVfWT1b-83" value="Softmax" style="text;html=1;strokeColor=none;fillColor=none;align=center;verticalAlign=middle;whiteSpace=wrap;rounded=0;" parent="1" vertex="1">
          <mxGeometry x="730" y="465" width="40" height="20" as="geometry" />
        </mxCell>
        <mxCell id="VEnAIz456IoGPyVfWT1b-84" value="Linear Layer" style="text;html=1;strokeColor=none;fillColor=none;align=center;verticalAlign=middle;whiteSpace=wrap;rounded=0;" parent="1" vertex="1">
          <mxGeometry x="660" y="405" width="80" height="20" as="geometry" />
        </mxCell>
        <mxCell id="VEnAIz456IoGPyVfWT1b-85" value="" style="ellipse;whiteSpace=wrap;html=1;aspect=fixed;" parent="1" vertex="1">
          <mxGeometry x="566.5" y="666" width="27" height="27" as="geometry" />
        </mxCell>
        <mxCell id="VEnAIz456IoGPyVfWT1b-86" value="" style="ellipse;whiteSpace=wrap;html=1;aspect=fixed;" parent="1" vertex="1">
          <mxGeometry x="566.5" y="720" width="27" height="27" as="geometry" />
        </mxCell>
        <mxCell id="VEnAIz456IoGPyVfWT1b-87" value="" style="ellipse;whiteSpace=wrap;html=1;aspect=fixed;" parent="1" vertex="1">
          <mxGeometry x="686.5" y="465" width="27" height="27" as="geometry" />
        </mxCell>
        <mxCell id="VEnAIz456IoGPyVfWT1b-88" value="" style="ellipse;whiteSpace=wrap;html=1;aspect=fixed;" parent="1" vertex="1">
          <mxGeometry x="686.5" y="519" width="27" height="27" as="geometry" />
        </mxCell>
        <mxCell id="VEnAIz456IoGPyVfWT1b-89" value="" style="ellipse;whiteSpace=wrap;html=1;aspect=fixed;" parent="1" vertex="1">
          <mxGeometry x="566.5" y="276" width="27" height="27" as="geometry" />
        </mxCell>
        <mxCell id="VEnAIz456IoGPyVfWT1b-90" value="" style="ellipse;whiteSpace=wrap;html=1;aspect=fixed;" parent="1" vertex="1">
          <mxGeometry x="566.5" y="330" width="27" height="27" as="geometry" />
        </mxCell>
        <mxCell id="VEnAIz456IoGPyVfWT1b-91" value="" style="ellipse;whiteSpace=wrap;html=1;aspect=fixed;" parent="1" vertex="1">
          <mxGeometry x="566.5" y="243" width="27" height="27" as="geometry" />
        </mxCell>
        <mxCell id="VEnAIz456IoGPyVfWT1b-92" value="" style="ellipse;whiteSpace=wrap;html=1;aspect=fixed;" parent="1" vertex="1">
          <mxGeometry x="686.5" y="432" width="27" height="27" as="geometry" />
        </mxCell>
        <mxCell id="VEnAIz456IoGPyVfWT1b-93" value="" style="ellipse;whiteSpace=wrap;html=1;aspect=fixed;" parent="1" vertex="1">
          <mxGeometry x="566.5" y="633" width="27" height="27" as="geometry" />
        </mxCell>
        <mxCell id="VEnAIz456IoGPyVfWT1b-100" value="In, Out: 20, 2" style="text;html=1;strokeColor=none;fillColor=none;align=center;verticalAlign=middle;whiteSpace=wrap;rounded=0;" parent="1" vertex="1">
          <mxGeometry x="665" y="550" width="75" height="20" as="geometry" />
        </mxCell>
        <mxCell id="VEnAIz456IoGPyVfWT1b-101" value="In, Out: 50, 10" style="text;html=1;strokeColor=none;fillColor=none;align=center;verticalAlign=middle;whiteSpace=wrap;rounded=0;" parent="1" vertex="1">
          <mxGeometry x="533.5" y="358" width="86.5" height="20" as="geometry" />
        </mxCell>
        <mxCell id="VEnAIz456IoGPyVfWT1b-102" value="In, Out: 50, 10" style="text;html=1;strokeColor=none;fillColor=none;align=center;verticalAlign=middle;whiteSpace=wrap;rounded=0;" parent="1" vertex="1">
          <mxGeometry x="533.5" y="748" width="86.5" height="20" as="geometry" />
        </mxCell>
        <mxCell id="M5hV-i405RxHSJEgaDIn-1" value="" style="shape=flexArrow;endArrow=classic;startArrow=classic;html=1;fillColor=#f5f5f5;strokeColor=#666666;" parent="1" edge="1">
          <mxGeometry width="100" height="100" relative="1" as="geometry">
            <mxPoint x="210" y="660" as="sourcePoint" />
            <mxPoint x="210" y="332" as="targetPoint" />
          </mxGeometry>
        </mxCell>
        <mxCell id="M5hV-i405RxHSJEgaDIn-2" value="Shared &lt;br&gt;Weights" style="text;html=1;align=center;verticalAlign=middle;resizable=0;points=[];autosize=1;strokeColor=#666666;fillColor=#f5f5f5;fontColor=#333333;" parent="1" vertex="1">
          <mxGeometry x="141" y="470" width="60" height="30" as="geometry" />
        </mxCell>
        <mxCell id="A_X_l40McOnE2sB7VnQm-1" value="Out2: 10x1" style="rounded=0;whiteSpace=wrap;html=1;" vertex="1" parent="1">
          <mxGeometry x="790" y="668" width="70" height="44" as="geometry" />
        </mxCell>
        <mxCell id="A_X_l40McOnE2sB7VnQm-2" value="Out1: 10x1" style="rounded=0;whiteSpace=wrap;html=1;" vertex="1" parent="1">
          <mxGeometry x="790" y="277" width="70" height="44" as="geometry" />
        </mxCell>
        <mxCell id="A_X_l40McOnE2sB7VnQm-7" value="Auxiliary Loss&lt;br&gt;weight: 0.8" style="rounded=0;whiteSpace=wrap;html=1;fillColor=#ffe6cc;strokeColor=#d79b00;" vertex="1" parent="1">
          <mxGeometry x="777.5" y="330" width="95" height="41" as="geometry" />
        </mxCell>
        <mxCell id="A_X_l40McOnE2sB7VnQm-8" value="Auxiliary Loss&lt;br&gt;weight: 0.8" style="rounded=0;whiteSpace=wrap;html=1;fillColor=#ffe6cc;strokeColor=#d79b00;" vertex="1" parent="1">
          <mxGeometry x="777.5" y="720" width="95" height="41" as="geometry" />
        </mxCell>
        <mxCell id="A_X_l40McOnE2sB7VnQm-9" value="Softmax" style="text;html=1;align=center;verticalAlign=middle;resizable=0;points=[];autosize=1;strokeColor=none;" vertex="1" parent="1">
          <mxGeometry x="680" y="279" width="60" height="20" as="geometry" />
        </mxCell>
        <mxCell id="A_X_l40McOnE2sB7VnQm-10" value="Softmax" style="text;html=1;align=center;verticalAlign=middle;resizable=0;points=[];autosize=1;strokeColor=none;" vertex="1" parent="1">
          <mxGeometry x="686.5" y="668" width="60" height="20" as="geometry" />
        </mxCell>
      </root>
    </mxGraphModel>
  </diagram>
</mxfile>
